<?xml version="1.0" encoding="UTF-8"?>
<!-- Created with Inkscape (http://www.inkscape.org/) -->
<svg id="svg4298" width="138.84mm" height="138.54mm" version="1.1" viewBox="0 0 138.84 138.54" xml:space="preserve" xmlns="http://www.w3.org/2000/svg"><g id="layer1" transform="translate(-4.4263 -3.5328)"><g id="g4390" transform="translate(-35.599 -53.39)" stroke-width=".22883"><path id="path4394" d="m104.52 192.22c-7.3689-0.57986-6.9793-0.26639-6.9793-5.6146 0-4.5108 0.13456-5.009 1.1135-4.1232 0.67583 0.61162 2.0901 0.30958 2.0901-0.44636 0-0.82786-8.4468-5.4862-12.786-7.0516-3.7107-1.3385-12.361-3.0008-12.886-2.4761-0.1737 0.1737 0.01291 0.28546 0.64322 0.38522 1.5027 0.23783 2.6041 0.63697 2.6041 0.94372 0 0.38533-6.2299 6.7278-6.6084 6.7278-0.63488 0-7.4404-6.0063-8.6729-7.6544-0.3837-0.51308-0.77759-0.73759-1.4874-0.84779-0.53101-0.0824 2.5356-0.11964 6.8147-0.0827 13.735 0.11866 21.291 2.1797 30.66 8.3626 2.5144 1.6593 2.5144 1.6593 3.318 1.1949 1.4894-0.86062 0.8367-2.0723-2.8955-5.3755-7.8927-6.9855-19.109-10.595-36.518-11.752-1.5872-0.10547-2.0023-0.20566-2.0023-0.48336 0-0.74522 4.6408-9.1904 10.41-18.945 6.5219-11.026 6.1506-10.017 3.6463-9.9081-1.5728 0.0684-1.5728 0.0684-4.4878 4.7594-1.6033 2.58-3.1285 4.9999-3.3893 5.3775-1.3307 1.9265-5.0328 7.9159-5.6929 9.2104-0.27278 0.53488-0.54897 0.97252-0.61377 0.97252-0.0648 0-0.0013-0.21767 0.14106-0.48372 0.20526-0.38354 0.17568-0.6382-0.14282-1.2296-0.4017-0.74592-0.4017-0.74592 0.58212-2.4338 0.5411-0.92836 1.7565-3.0266 2.7009-4.6627 1.9593-3.3944 3.5985-6.2264 5.4635-9.4392 3.1518-5.4296 3.0673-5.0914 1.2729-5.0914-1.5832 0-2.1152 0.32006-2.9746 1.7896-0.34439 0.58889-1.2227 1.9975-1.9518 3.1302-0.72911 1.1327-2.5124 3.9645-3.9629 6.2928-3.6932 5.9283-3.628 5.8884-4.6337 2.8387-0.25297-0.76707-0.66206-1.7453-0.9091-2.1739-0.24703-0.42856-0.6689-1.6545-0.93748-2.7242-0.81526-3.2472-0.4663-3.0665-6.2153-3.2196-2.6927-0.0717-4.9105-0.14896-4.9285-0.17162-0.88749-1.1172-1.4928-11.327-1.0072-16.987 0.6029-7.0273 0.13645-6.4933 5.7853-6.6235 5.8675-0.13522 5.468 0.0632 6.2699-3.1134 0.31438-1.2453 0.81897-2.779 1.1213-3.4083s0.86785-1.9679 1.2567-2.9748c0.38882-1.0068 1.1281-2.6029 1.6428-3.5468 3.1904-5.8506 3.2728-4.9676-0.84869-9.0892-3.7244-3.7244-3.7202-3.7148-2.2977-5.3165 0.5612-0.63188 1.4532-1.7423 1.9823-2.4675 2.2657-3.106 12.466-12.417 13.602-12.417 0.141 0 1.7418 1.4931 3.5573 3.318 3.9948 4.0154 3.2993 3.9211 8.7337 1.1848 3.9149-1.9712 6.971-3.1459 11.438-4.3966 1.9396-0.54306 1.9993-0.72619 1.9993-6.1308 0-5.0959-0.12585-4.7973 2.1739-5.158 5.9247-0.92909 14.732-0.92655 19.679 0.0057 2.0541 0.38705 1.945 0.07993 1.945 5.4789 0 5.6153-0.30906 5.0642 3.4324 6.12 4.7282 1.3343 8.9512 3.1287 12.687 5.3907 2.2106 1.3387 2.2474 1.3234 6.0442-2.4947 1.8147-1.8249 3.4307-3.318 3.5911-3.318 1.7494 0 14.372 12.529 16.332 16.21 0.27006 0.50733 0.10895 0.71318-3.052 3.8996-3.9483 3.9801-3.8805 3.7639-2.1682 6.9147 2.2867 4.2077 3.7384 7.8025 5.232 12.955 0.6916 2.386 0.60879 2.3533 5.963 2.3533 3.2414 0 4.5813 0.0792 4.8411 0.28603 1.4856 1.183 1.593 21.34 0.12383 23.226-0.1651 0.212-1.4165 0.28604-4.8348 0.28604-5.5823 0-5.373-0.091-6.1914 2.6929-1.714 5.8309-2.2352 7.089-2.7892 6.7332-0.21491-0.138-2.2979-3.3478-4.1655-6.419-0.33358-0.54855-0.91542-1.4647-1.293-2.036-0.84128-1.2728-1.3117-2.0276-2.6132-4.1926-3.3484-5.5701-5.8684-3.8861-2.6729 1.7862 2.0666 3.6684 5.6284 9.5509 9.1823 15.165 7.9843 12.613 7.7793 12.177 7.7003 16.375-0.0804 4.27-0.16742 4.2198 7.3178 4.2198 2.2271 0 2.2393 0.20078-0.22673-3.7449-2.314-3.7025-2.4975-4.0178-2.148-3.692 0.52503 0.48954 4.6116 7.277 4.4949 7.4657-0.14657 0.23715-3.0589 0.25837-6.9256 0.0505-2.7819-0.14958-2.7819-0.14958-2.7819-4.2584 0-4.1089 0-4.1089-5.1908-12.379-4.9252-7.8467-7.7923-12.495-10.887-17.652-1.9217-3.202-1.8295-3.1212-3.4739-3.0418-2.255 0.10898-2.2261 0.18908 3.9691 10.997 0.70459 1.2293 3.1258 5.4512 5.3804 9.382s4.2584 7.4291 4.453 7.774c0.49852 0.88384 0.23676 1.0214-2.2595 1.187-20.677 1.3722-34.644 7.4751-41.783 18.257-3.2873 4.9649-3.5761 7.2119-0.47157 3.6692 8.6893-9.9156 19.722-14.116 37.849-14.411 7.1072-0.11568 7.6411-0.0662 6.8024 0.62979-0.29138 0.24182-0.32486 0.22767-0.20435-0.0864 0.80324-2.0932-4.0699-0.24036-7.0104 2.6654-6.1551 6.0825-6.1836 6.0888-9.9206 2.1906-2.9466-3.0737-3.1793-3.4338-2.4814-3.8403 1.2392-0.72179-2.8398 0.0421-6.7609 1.2662-5.8338 1.8212-14.349 7.0949-16.488 10.212-0.19514 0.28431 0.29525-0.0805 1.0897-0.81065 2.1508-1.9767 2.1818-1.9391 2.2564 2.739 0.0745 4.6742 0.17948 4.4798-2.6181 4.8494-5.3199 0.70275-9.4757 0.84208-14.149 0.47436zm3.0999-15c2.1679-1.7032 2.0463-1.1634 2.0668-9.1754 0.01-3.8745 0.07-6.9158 0.13349-6.7585 0.0635 0.15732 0.45622 0.28604 0.87276 0.28604 1.0445 0 1.0319-0.0821 1.06 6.9408 0.0262 6.5658 0.17147 8.9005 0.54724 8.797 0.22508-0.062 0.22703-1.2852 0.0183-11.504-0.0656-3.2121-0.0411-3.8098 0.0939-2.2883 0.10046 1.1327 0.19469 4.1704 0.2094 6.7504 0.0403 7.0588 0.0801 7.1641 1.9432 5.1363 5.7845-6.296 23.618-15.797 33.282-17.732 1.8298-0.36627 1.8938-0.56005 0.86956-2.6316-0.45828-0.92682-0.83137-1.7672-0.82909-1.8674 2e-3 -0.10025-0.5099-1.212-1.1382-2.4706-2.5807-5.1696-10.232-22.92-9.9861-23.166 0.0501-0.0501 0.42108 0.76457 0.82439 1.8104s0.97137 2.3713 1.2624 2.9455c0.29098 0.57422 1.0923 2.4286 1.7807 4.1208 1.261 3.0998 4.7262 10.897 6.3502 14.289 0.48202 1.0068 1.2894 2.7316 1.7942 3.8329 0.72444 1.5804 1.018 2.0022 1.3934 2.0022 0.65658 0 2.1201-0.63563 2.0256-0.87973-0.0426-0.10986-0.66135-1.4757-1.3751-3.0352-3.3503-7.3202-4.8916-10.764-5.5894-12.491-0.41689-1.0313-1.0063-2.37-1.3098-2.9748-0.55181-1.0997-0.55181-1.0997-0.12851-2.3308 1.735-5.0463 1.6658-17.094-0.11526-20.05-0.15168-0.25171-0.57183-1.1785-0.93367-2.0595-0.36183-0.88099-0.84621-1.8751-1.0764-2.2092-0.2302-0.33406-0.41854-0.71663-0.41854-0.85014s-0.29159-0.581-0.64798-0.99441-1.1131-1.4725-1.6816-2.3535c-19.507-30.23-68.707-12.813-64.821 22.948 0.55641 5.121 0.70476 5.5414 1.9554 5.5414 1.3602 0 1.3403 0.41485-0.14054 2.9214-0.72373 1.225-2.81 4.7501-4.6362 7.8336s-3.8163 6.4446-4.4225 7.4692c-1.4718 2.4877-1.4947 2.3474 0.48303 2.9676 2.2376 0.70179 2.0816 0.74435 2.819-0.76883 0.35266-0.72367 0.92468-1.8306 1.2711-2.4599s3.4395-6.7047 6.8734-13.501c4.2092-8.3305 5.6716-11.66 6.9651-12.585 0.27291-0.0796 0.68884-0.23906 0.13237 0.22536-1.0852 0.70278-2.2686 3.3316-5.9023 10.559-3.029 6.0245-6.4311 12.723-7.5603 14.885-1.5036 2.8789-1.9803 3.9877-1.7811 4.1428 0.14956 0.11648 1.6621 0.64845 3.3611 1.1822 14.047 4.4126 26.044 11.683 30.778 18.652 1.5458 2.2758 1.5664 2.2813 3.3281 0.89725z" fill="#157ad6"/><path id="path4392" d="m102.23 195.19c-7.9987-0.78689-7.766-0.58849-7.8418-6.6866-0.07068-5.6844 0.20018-5.0877-2.6637-5.8683-2.8393-0.77394-9.3039-3.5485-10.943-4.6967-0.86106-0.60311-1.088-0.45271-4.6452 3.0778-2.268 2.251-3.6248 3.4324-3.9421 3.4324-1.629 0-14.014-10.719-14.014-12.129 0-0.70843 4.2657-0.24003 4.8261 0.52994 1.1921 1.6379 8.0455 7.709 8.7024 7.709 0.37849 0 6.6084-6.3425 6.6084-6.7278 0-0.30675-1.1014-0.70589-2.6041-0.94372-0.63032-0.0998-0.81693-0.21152-0.64322-0.38522 0.52467-0.52467 9.1755 1.1376 12.886 2.4761 4.3396 1.5654 12.786 6.2237 12.786 7.0516 0 0.75594-1.4143 1.058-2.0901 0.44636-0.97786-0.88494-1.1137-0.38528-1.11 4.0823 0.0018 2.3008 0.09315 4.3248 0.20272 4.4978 1.043 1.6465 22.326 1.6545 23.383 9e-3 0.1142-0.1778 0.18212-2.0725 0.15094-4.2104-0.0677-4.6385-0.10119-4.6788-2.2505-2.7035-0.79449 0.73017-1.2849 1.095-1.0897 0.81065 2.1394-3.1172 10.654-8.3909 16.488-10.212 3.921-1.224 8.0001-1.988 6.7609-1.2662-0.69782 0.40645-0.46511 0.76659 2.4814 3.8403 3.737 3.8983 3.7655 3.892 9.9206-2.1906 2.8964-2.8622 7.1056-4.52 7.1056-2.7985 0 1.4409-12.357 12.114-14.025 12.114-0.30304 0-1.7273-1.2454-3.9706-3.4719-3.4981-3.4719-3.4981-3.4719-7.1103-1.7446-4.0108 1.9178-6.922 3.0475-9.333 3.6215-1.6018 0.38137-1.6018 0.38137-1.6636 5.3802-0.0672 5.4338-0.11924 5.6556-1.3921 5.9305-5.413 1.1689-14.832 1.6296-20.971 1.0257zm9.8131-17.872c-0.10595-0.16829-0.22443-3.5496-0.26328-7.5141-0.0837-8.5374-0.045-8.2378-1.063-8.2378-0.90421 0-1.0498-0.25754-1.0498-1.8565 0-1.1655 0.0183-1.1875 1.2014-1.4467 0.62928-0.13788 0.62928-0.13788 0.62928-9.201 0-10.327 0.77687-11.582 12.17-19.674 9.5418-6.777 12.546-8.7202 13.024-8.4248 0.32667 0.20189 1.9146 3.616 3.0535 6.5651 1.3933 3.6078 1.959 2.5466 1.982-3.7185 0.0191-5.2096-1.489-9.9238-4.5256-14.146-2.8479-3.96-3.594-4.8944-5.1281-6.4232-17.691-17.629-47.894-9.0891-53.961 15.257-1.3957 5.6006-1.0411 12.759 0.45874 9.2598 0.25624-0.59782 0.60226-1.2414 0.76895-1.4302 0.16669-0.18879 0.68495-1.0972 1.1517-2.0186s0.99436-1.7313 1.1725-1.7996c0.9455-0.36283 12.787 5.7361 15.761 8.1179 4.4661 3.5764 10.869 9.4894 10.869 10.037 0 0.55044-0.33149 0.33379-1.8372-1.2007-5.7684-5.8787-20.066-14.491-21.528-12.968-0.21351 0.22237-3.1978 5.9648-6.6317 12.761-3.4339 6.7962-6.527 12.872-6.8734 13.501s-0.91849 1.7362-1.2711 2.4599c-0.73741 1.5132-0.58136 1.4706-2.819 0.76883-1.9777-0.62028-1.9548-0.4799-0.48303-2.9676 0.60619-1.0246 2.5963-4.3858 4.4225-7.4692s3.9125-6.6086 4.6362-7.8336c1.4808-2.5065 1.5008-2.9214 0.14054-2.9214-1.2506 0-1.3989-0.42041-1.9554-5.5414-3.8855-35.76 45.314-53.178 64.821-22.948 0.56849 0.881 1.3252 1.94 1.6816 2.3535s0.64798 0.8609 0.64798 0.99441 0.18835 0.51608 0.41854 0.85014c0.2302 0.33407 0.71459 1.3282 1.0764 2.2092s0.78198 1.8078 0.93367 2.0595c1.781 2.9554 1.8502 15.004 0.11525 20.05-0.4233 1.2312-0.4233 1.2312 0.12851 2.3308 0.3035 0.60481 0.89291 1.9434 1.3098 2.9748 0.69782 1.7263 2.2391 5.1706 5.5894 12.491 0.71377 1.5595 1.3326 2.9254 1.3751 3.0352 0.0945 0.2441-1.369 0.87973-2.0256 0.87973-0.37535 0-0.66893-0.42186-1.3934-2.0022-0.5048-1.1012-1.3122-2.826-1.7942-3.8329-1.624-3.3921-5.0892-11.19-6.3502-14.289-0.6884-1.6922-1.5117-3.5899-1.8295-4.217-0.3178-0.62716-0.72222-1.5496-0.89871-2.0498-0.73312-2.0779-2.2048-5.1603-2.5218-5.282-0.45893-0.1761-1.0444 0.14981-4.7796 2.6607-8.6814 5.8359-13.612 9.701-16.996 13.323-1.545 1.6537-1.769 7.2129-1.1904 29.534 0.16694 6.4403 0.10047 7.6886-0.3696 6.942zm-68.428-5.0527c-0.0977-0.1587 3.0764-5.331 9.5561-15.572 3.1361-4.9565 3.0132-4.4293 1.7189-7.3761-0.92078-2.0964-1.7176-4.3396-2.4766-6.9728-0.29684-1.0297-0.29684-1.0297-5.4455-1.1552-2.8318-0.069-5.1715-0.14624-5.1995-0.17162-1.7531-1.592-2.3802-18.584-0.97286-26.361 0.71382-3.9448 0.21374-3.6408 6.1089-3.714 5.7795-0.0718 4.9928 0.40101 6.3497-3.8159 1.0247-3.1844 2.2356-5.9117 3.7686-8.4881 1.4825-2.4915 1.6847-1.981-2.2822-5.761-3.5166-3.3509-3.9085-3.9098-3.4488-4.9187 2.1269-4.668 18.086-19.983 20.823-19.983 0.45626 0 1.3805 0.78852 4.0604 3.4643 3.4697 3.4643 3.4697 3.4643 6.982 1.7388 3.2819-1.6123 7.2607-3.1693 9.9194-3.8816 1.1441-0.30652 1.1441-0.30652 1.2696-5.4478 0.06901-2.8277 0.14624-5.1634 0.17162-5.1905 1.6314-1.7378 18.246-2.3646 26.133-0.98596 1.4473 0.253 2.7088 0.46069 2.8032 0.46152 0.94128 0.0083 1.0869 0.78939 1.0869 5.8286 0 5.5364-0.15463 5.0918 1.945 5.5923 2.6024 0.62036 8.547 3.0766 10.899 4.5035 1.617 0.98086 1.455 1.0039 2.9469-0.41976 0.6924-0.66074 2.3075-2.2053 3.589-3.4324 2.8701-2.7481 2.7894-2.7404 5.7173-0.54904 6.552 4.9038 13.377 11.873 17.208 17.573 1.1244 1.6728 1.1034 1.7155-2.7577 5.6057-3.4722 3.4983-3.4722 3.4983-1.9634 6.6527 1.7188 3.5937 3.0778 6.9502 3.8249 9.4471 0.65553 2.1909 0.26718 2.0519 5.7431 2.056 6.0151 4e-3 5.287-0.6624 6.6242 6.0675 0.95696 4.8163 0.59648 16.567-0.65926 21.489-0.66285 2.5985-0.32724 2.4549-6.0694 2.597-5.4876 0.13581-5.2049 0.0412-5.6333 1.8857-0.16076 0.69221-0.90462 2.7927-1.653 4.6678-1.5352 3.8465-1.5441 3.4586 0.13809 6.0454 0.54693 0.84103 1.7957 2.8163 2.775 4.3895 0.9793 1.5732 2.3712 3.7871 3.0931 4.9198 6.2798 9.8536 6.0461 9.2676 3.6953 9.2676-7.4853 0-7.3983 0.0502-7.3178-4.2198 0.0791-4.1977 0.28403-3.7618-7.7003-16.375-5.1207-8.0893-11.028-18.088-11.123-18.826-0.2965-2.3158 2.8668-1.03 4.6132 1.8751 1.3015 2.165 1.7719 2.9198 2.6132 4.1926 0.37757 0.57124 0.95941 1.4874 1.293 2.036 1.8676 3.0711 3.9506 6.281 4.1655 6.419 0.55405 0.35577 1.0752-0.9023 2.7892-6.7332 0.81835-2.7839 0.60906-2.6929 6.1914-2.6929 3.4183 0 4.6697-0.074 4.8348-0.28604 1.4692-1.8865 1.3617-22.043-0.12383-23.226-0.25978-0.20686-1.5997-0.28603-4.8411-0.28603-5.3542 0-5.2714 0.0327-5.963-2.3533-1.4936-5.1528-2.9454-8.7476-5.232-12.955-1.7123-3.1508-1.7801-2.9346 2.1682-6.9147 3.161-3.1864 3.3221-3.3923 3.052-3.8996-1.9598-3.6815-14.583-16.21-16.332-16.21-0.16043 0-1.7764 1.4931-3.5911 3.318-3.7968 3.8182-3.8337 3.8334-6.0442 2.4947-3.7354-2.262-7.9584-4.0564-12.687-5.3907-3.7415-1.0558-3.4324-0.50478-3.4324-6.12 0-5.399 0.10903-5.0918-1.945-5.4789-4.9473-0.93223-13.755-0.93477-19.679-0.0057-2.2997 0.36063-2.1739 0.06203-2.1739 5.158 0 5.4046-0.05972 5.5877-1.9993 6.1308-4.4669 1.2507-7.523 2.4254-11.438 4.3966-5.4345 2.7363-4.7389 2.8306-8.7337-1.1848-1.8155-1.8249-3.4163-3.318-3.5573-3.318-1.1368 0-11.337 9.3109-13.602 12.417-0.52906 0.72527-1.4211 1.8357-1.9823 2.4675-1.4226 1.6018-1.4268 1.5921 2.2977 5.3165 4.1215 4.1215 4.0391 3.2386 0.84869 9.0892-0.51473 0.94391-1.254 2.54-1.6428 3.5468-0.38882 1.0068-0.95432 2.3455-1.2567 2.9748s-0.80694 2.163-1.1213 3.4083c-0.80193 3.1765-0.40243 2.9781-6.2699 3.1134-5.6489 0.13018-5.1824-0.40384-5.7853 6.6235-0.48562 5.6604 0.11972 15.87 1.0072 16.987 0.018 0.0227 2.2358 0.0999 4.9285 0.17162 5.749 0.15316 5.4-0.0276 6.2153 3.2196 0.26858 1.0698 0.69045 2.2957 0.93748 2.7242 0.24704 0.42856 0.65613 1.4068 0.9091 2.1739 1.0058 3.0497 0.94057 3.0896 4.6337-2.8387 1.4505-2.3283 3.2338-5.1601 3.9629-6.2928 0.72911-1.1327 1.6074-2.5413 1.9518-3.1302 0.85942-1.4696 1.3914-1.7896 2.9746-1.7896 1.7943 0 1.8789-0.3382-1.2729 5.0914-1.865 3.2128-3.5042 6.0448-5.4635 9.4392-0.9444 1.6361-2.1598 3.7344-2.7009 4.6627-0.98382 1.6879-0.98382 1.6879-0.57493 2.4472 0.40599 0.75388 0.40432 0.76708-0.2343 1.8589-1.3786 2.357-3.6468 5.7292-4.6624 6.9319-1.7361 2.0558-1.8721 2.5296-1.8324 6.3821 0.03451 3.346 0.03451 3.346-1.1911 3.4002-3.4207 0.15119-9.1775 0.15397-9.2695 4e-3zm45.547-50.98c-2.2765-0.40729-2.3774-0.49257-2.3774-2.009 0-1.6956 0.03679-1.7232 1.3922-1.0424 3.3285 1.6718 7.0745 1.0308 7.0745-1.2107 0-1.6707-0.80838-2.1385-3.6954-2.1385-3.0588 0-2.7819-2.1852 0.29554-2.3323 1.9501-0.0932 2.1295-0.14358 2.6441-0.74184 2.1073-2.4499-3.0069-3.9104-6.2706-1.7908-0.89878 0.58371-1.4946-1.7478-0.63001-2.4653 1.0706-0.88856 6.8211-1.1081 8.7442-0.33377 2.6622 1.0718 2.9107 4.6845 0.39459 5.7358-1.0581 0.44209-1.0042 0.84004 0.16917 1.2488 1.9674 0.68535 2.6699 3.3648 1.3634 5.1996-1.2161 1.7079-5.3249 2.5565-9.1041 1.8804zm13.973-0.18343c-0.96637-0.2792-0.7898-2.5498-0.7898-7.0371 0-7.189 0-7.189 6.4072-7.189 6.4072 0 6.4072 0 6.4072 7.2181s0 7.2181-1.6415 7.1509c-1.6415-0.0672-1.6415-0.0672-1.6236-5.7343 0.0211-6.6693 0.30931-6.1176-3.1957-6.1176-3.1552 0-2.8434-0.49668-2.9212 6.2046-0.0518 4.4644 0.27806 6.3482-2.6426 5.5044zm19.576-5.4849c0-6.6516 0.17451-6.2242-2.5408-6.2242-1.831 0-3.046-1.4319-2.0548-2.4219 0.98392-0.98277 12.605 0.0821 12.605 1.155 0 1.2503 0 1.2503-2.2311 1.3158-2.2311 0.0655-2.2311 0.0655-2.2922 5.9578-0.0611 5.8923-0.0611 5.8923-1.7734 5.8923-1.7124 0-1.7124 0-1.7124-5.675z" fill="#27354b"/></g></g></svg>
