<?xml version="1.0" encoding="UTF-8" standalone="no"?>
<!-- Created with Inkscape (http://www.inkscape.org/) -->

<svg
   width="138.83813mm"
   height="138.53592mm"
   viewBox="0 0 138.83813 138.53592"
   version="1.1"
   id="svg4298"
   xml:space="preserve"
   xmlns:inkscape="http://www.inkscape.org/namespaces/inkscape"
   xmlns:sodipodi="http://sodipodi.sourceforge.net/DTD/sodipodi-0.dtd"
   xmlns="http://www.w3.org/2000/svg"
   xmlns:svg="http://www.w3.org/2000/svg"><sodipodi:namedview
     id="namedview4300"
     pagecolor="#ffffff"
     bordercolor="#000000"
     borderopacity="0.25"
     inkscape:showpageshadow="2"
     inkscape:pageopacity="0.0"
     inkscape:pagecheckerboard="0"
     inkscape:deskcolor="#d1d1d1"
     inkscape:document-units="mm"
     showgrid="false" /><defs
     id="defs4295" /><g
     inkscape:label="Слой 1"
     inkscape:groupmode="layer"
     id="layer1"
     transform="translate(-4.4262844,-3.5327968)"><g
       id="g4390"
       transform="translate(-35.599392,-53.390442)"><path
         style="fill:#157ad6;stroke-width:0.228829"
         d="m 104.52134,192.21681 c -7.368939,-0.57986 -6.97928,-0.26639 -6.97928,-5.61456 0,-4.51077 0.134563,-5.00905 1.113479,-4.12315 0.675827,0.61162 2.090121,0.30958 2.090121,-0.44636 0,-0.82786 -8.446846,-5.4862 -12.786452,-7.05158 -3.710663,-1.33851 -12.361452,-3.00081 -12.88612,-2.47614 -0.173704,0.1737 0.01291,0.28546 0.643222,0.38522 1.502744,0.23783 2.604129,0.63697 2.604129,0.94372 0,0.38533 -6.229949,6.72785 -6.608441,6.72785 -0.634883,0 -7.440422,-6.00628 -8.672928,-7.65436 -0.3837,-0.51308 -0.777588,-0.73759 -1.487388,-0.84779 -0.531012,-0.0824 2.535605,-0.11964 6.814704,-0.0827 13.734694,0.11866 21.291235,2.17971 30.660343,8.36262 2.514401,1.65931 2.514401,1.65931 3.318021,1.19494 1.48936,-0.86062 0.8367,-2.0723 -2.895473,-5.37551 -7.892713,-6.98554 -19.109483,-10.59532 -36.517576,-11.75211 -1.587228,-0.10547 -2.002252,-0.20566 -2.002252,-0.48336 0,-0.74522 4.640767,-9.19042 10.410377,-18.94464 6.521926,-11.02611 6.150598,-10.01709 3.646273,-9.90809 -1.572759,0.0684 -1.572759,0.0684 -4.487825,4.75944 -1.603289,2.58004 -3.128456,4.99991 -3.389264,5.37748 -1.33071,1.92646 -5.032773,7.91589 -5.692907,9.21036 -0.272775,0.53488 -0.548972,0.97252 -0.61377,0.97252 -0.0648,0 -0.0013,-0.21767 0.141064,-0.48372 0.205264,-0.38354 0.175685,-0.6382 -0.142822,-1.22963 -0.401701,-0.74592 -0.401701,-0.74592 0.58212,-2.43385 0.541102,-0.92836 1.756515,-3.02659 2.700919,-4.66271 1.959283,-3.39435 3.598484,-6.22638 5.46346,-9.43919 3.151805,-5.42964 3.067253,-5.09144 1.272931,-5.09144 -1.583232,0 -2.115216,0.32006 -2.974635,1.78965 -0.344388,0.58889 -1.222699,1.99746 -1.951805,3.13017 -0.729106,1.1327 -2.51241,3.96446 -3.962895,6.29279 -3.693155,5.92828 -3.627969,5.88835 -4.633723,2.83867 -0.252971,-0.76707 -0.662065,-1.74532 -0.9091,-2.17388 -0.247034,-0.42856 -0.668901,-1.65447 -0.937482,-2.72425 -0.815258,-3.24723 -0.466295,-3.06646 -6.215273,-3.21962 -2.692653,-0.0717 -4.910459,-0.14896 -4.928457,-0.17162 -0.887488,-1.11717 -1.49283,-11.32662 -1.007205,-16.98707 0.602895,-7.02733 0.136446,-6.49331 5.785326,-6.62349 5.867458,-0.13522 5.467958,0.0632 6.269884,-3.11335 0.314376,-1.24527 0.818969,-2.77899 1.121318,-3.40827 0.302349,-0.62928 0.867849,-1.96793 1.256665,-2.97478 0.388817,-1.00684 1.128082,-2.60293 1.642811,-3.54684 3.190384,-5.850577 3.272826,-4.96765 -0.848688,-9.089164 -3.72441,-3.724411 -3.720238,-3.714757 -2.297654,-5.31651 0.5612,-0.631884 1.453229,-1.74228 1.982286,-2.467549 2.26571,-3.105999 12.465549,-12.416872 13.602389,-12.416872 0.140998,0 1.741799,1.493108 3.557336,3.318018 3.994793,4.015415 3.299257,3.921061 8.733708,1.184793 3.914922,-1.971179 6.971036,-3.14591 11.437962,-4.396607 1.939565,-0.54306 1.999287,-0.726194 1.999287,-6.130786 0,-5.095935 -0.125849,-4.797333 2.173874,-5.157967 5.924716,-0.929092 14.731956,-0.926549 19.679276,0.0057 2.05408,0.387051 1.94505,0.07993 1.94505,5.478891 0,5.61526 -0.30906,5.064206 3.43243,6.120035 4.72817,1.334266 8.95116,3.128679 12.68654,5.390702 2.21057,1.338654 2.24744,1.323437 6.04423,-2.494742 1.81468,-1.82491 3.43069,-3.318018 3.59112,-3.318018 1.74935,0 14.37241,12.528912 16.33219,16.210374 0.27006,0.507328 0.10895,0.71318 -3.05205,3.899603 -3.94833,3.980077 -3.88053,3.763854 -2.16821,6.914695 2.28666,4.207704 3.73844,7.802544 5.23202,12.955344 0.6916,2.386 0.60879,2.35332 5.96296,2.35332 3.24141,0 4.58134,0.0792 4.84112,0.28603 1.48557,1.18297 1.59302,21.33962 0.12383,23.22613 -0.1651,0.212 -1.41653,0.28604 -4.83482,0.28604 -5.58234,0 -5.37305,-0.091 -6.1914,2.6929 -1.71402,5.8309 -2.23518,7.08897 -2.78923,6.7332 -0.21491,-0.138 -2.29788,-3.34783 -4.16549,-6.41895 -0.33358,-0.54855 -0.91542,-1.46474 -1.29299,-2.03598 -0.84128,-1.2728 -1.31172,-2.02758 -2.6132,-4.19263 -3.34837,-5.57014 -5.86837,-3.88614 -2.67289,1.78616 2.06661,3.66843 5.6284,9.55092 9.18227,15.16503 7.98431,12.61294 7.77934,12.17705 7.70028,16.37476 -0.0804,4.27 -0.16742,4.21983 7.31784,4.21983 2.22713,0 2.23928,0.20078 -0.22673,-3.74492 -2.31401,-3.70249 -2.49749,-4.01785 -2.14804,-3.69201 0.52503,0.48954 4.61158,7.27698 4.49493,7.46572 -0.14657,0.23715 -3.05888,0.25837 -6.92556,0.0505 -2.78188,-0.14958 -2.78188,-0.14958 -2.78188,-4.25845 0,-4.10888 0,-4.10888 -5.19085,-12.3788 -4.92521,-7.84671 -7.79229,-12.49524 -10.88719,-17.65191 -1.92174,-3.20197 -1.82952,-3.12122 -3.47392,-3.04175 -2.25498,0.10898 -2.22607,0.18908 3.96909,10.99749 0.70459,1.22926 3.12576,5.45115 5.38037,9.38198 2.25461,3.93083 4.25845,7.42913 4.45296,7.774 0.49852,0.88384 0.23676,1.02136 -2.25946,1.18702 -20.67699,1.37224 -34.64418,7.4751 -41.78268,18.25662 -3.28729,4.96492 -3.57607,7.21186 -0.47157,3.66921 8.68927,-9.91559 19.72165,-14.11622 37.84929,-14.41127 7.10719,-0.11568 7.64109,-0.0662 6.80242,0.62979 -0.29138,0.24182 -0.32486,0.22767 -0.20435,-0.0864 0.80324,-2.09319 -4.06994,-0.24036 -7.0104,2.66542 -6.15512,6.08254 -6.18361,6.08883 -9.92063,2.19056 -2.94656,-3.07369 -3.17927,-3.43384 -2.48145,-3.84028 1.23923,-0.72179 -2.83984,0.0421 -6.76089,1.26618 -5.83384,1.82116 -14.34858,7.09488 -16.488,10.21207 -0.19514,0.28431 0.29525,-0.0805 1.08974,-0.81065 2.15081,-1.97667 2.18179,-1.93906 2.25635,2.73904 0.0745,4.67425 0.17948,4.4798 -2.61813,4.84936 -5.31989,0.70275 -9.47572,0.84208 -14.14889,0.47436 z m 3.09986,-14.99997 c 2.16789,-1.7032 2.04631,-1.16344 2.06685,-9.17536 0.01,-3.87449 0.07,-6.91582 0.13349,-6.7585 0.0635,0.15732 0.45622,0.28604 0.87276,0.28604 1.04447,0 1.03193,-0.0821 1.05998,6.94079 0.0262,6.56575 0.17147,8.90051 0.54724,8.79701 0.22508,-0.062 0.22703,-1.28516 0.0183,-11.50447 -0.0656,-3.21209 -0.0411,-3.80981 0.0939,-2.28829 0.10046,1.1327 0.19469,4.17041 0.2094,6.75045 0.0403,7.05877 0.0801,7.16412 1.94321,5.13628 5.78448,-6.29595 23.61819,-15.79726 33.28181,-17.73163 1.82981,-0.36627 1.89384,-0.56005 0.86956,-2.63156 -0.45828,-0.92682 -0.83137,-1.76715 -0.82909,-1.86739 0.002,-0.10025 -0.5099,-1.212 -1.13818,-2.47056 -2.58067,-5.16958 -10.23223,-22.91992 -9.98608,-23.16607 0.0501,-0.0501 0.42108,0.76457 0.82439,1.81039 0.40331,1.04582 0.97137,2.37131 1.26235,2.94554 0.29098,0.57422 1.0923,2.42858 1.7807,4.12078 1.261,3.09976 4.72618,10.89722 6.35017,14.28936 0.48202,1.00684 1.28943,2.73164 1.79423,3.83288 0.72444,1.58039 1.01801,2.00225 1.39337,2.00225 0.65658,0 2.12014,-0.63563 2.0256,-0.87973 -0.0426,-0.10986 -0.66135,-1.47571 -1.37512,-3.03523 -3.35032,-7.32015 -4.8916,-10.76448 -5.58943,-12.49079 -0.41689,-1.03132 -1.00629,-2.36996 -1.30979,-2.97477 -0.55181,-1.09966 -0.55181,-1.09966 -0.12851,-2.33082 1.735,-5.04626 1.66575,-17.09449 -0.11526,-20.04992 -0.15168,-0.25171 -0.57183,-1.17847 -0.93367,-2.05946 -0.36183,-0.88099 -0.84621,-1.87513 -1.07641,-2.2092 -0.2302,-0.33406 -0.41854,-0.71663 -0.41854,-0.85014 0,-0.13351 -0.29159,-0.581 -0.64798,-0.99441 -0.35639,-0.41341 -1.11311,-1.47246 -1.6816,-2.35346 -19.50699,-30.23013 -68.706764,-12.812633 -64.821301,22.94777 0.556411,5.12101 0.704758,5.54142 1.955358,5.54142 1.360241,0 1.340285,0.41485 -0.140544,2.92136 -0.723729,1.22501 -2.810014,4.75013 -4.636189,7.8336 -1.826175,3.08347 -3.816288,6.44461 -4.422474,7.46922 -1.471822,2.48773 -1.494671,2.34735 0.483026,2.96763 2.237625,0.70179 2.081582,0.74435 2.818988,-0.76883 0.352659,-0.72367 0.924677,-1.83063 1.271149,-2.45991 0.346472,-0.62928 3.439523,-6.70469 6.873441,-13.5009 4.209163,-8.33053 5.671636,-11.66012 6.965052,-12.58484 0.272906,-0.0796 0.688837,-0.23906 0.132366,0.22536 -1.085169,0.70278 -2.268589,3.33164 -5.902342,10.55896 -3.028992,6.02449 -6.431124,12.72256 -7.560293,14.8846 -1.503584,2.87894 -1.98026,3.98767 -1.781103,4.14277 0.149562,0.11648 1.662066,0.64845 3.36112,1.18216 14.047376,4.41258 26.044234,11.68299 30.778066,18.65232 1.54581,2.2758 1.56637,2.28134 3.3281,0.89725 z"
         id="path4394"
         sodipodi:nodetypes="csssssssssccssssssccssscsssssssssssccssssscsssssssssssssssssssscssssssssssssssssssssssssssscssscssssccccsssssccssscsssssssscssssssssscsssssssssccssssscc" /><path
         style="fill:#27354b;stroke-width:0.228829"
         d="m 102.23305,195.19323 c -7.998695,-0.78689 -7.766012,-0.58849 -7.841833,-6.68659 -0.07068,-5.6844 0.200175,-5.08769 -2.663652,-5.86832 -2.839294,-0.77394 -9.303937,-3.54847 -10.943221,-4.69667 -0.861055,-0.60311 -1.088042,-0.45271 -4.645188,3.07782 -2.268005,2.25103 -3.624813,3.43243 -3.942066,3.43243 -1.628991,0 -14.013587,-10.71912 -14.013587,-12.12904 0,-0.70843 4.265695,-0.24003 4.826066,0.52994 1.192068,1.63793 8.045491,7.70901 8.702429,7.70901 0.378492,0 6.608441,-6.34252 6.608441,-6.72785 0,-0.30675 -1.101385,-0.70589 -2.604129,-0.94372 -0.630316,-0.0998 -0.816926,-0.21152 -0.643222,-0.38522 0.524668,-0.52467 9.175457,1.13763 12.88612,2.47614 4.339606,1.56538 12.786452,6.22372 12.786452,7.05158 0,0.75594 -1.414294,1.05798 -2.090121,0.44636 -0.977857,-0.88494 -1.113717,-0.38528 -1.109976,4.08229 0.0018,2.30082 0.09315,4.32483 0.20272,4.4978 1.042956,1.64652 22.326317,1.65452 23.383317,0.009 0.1142,-0.1778 0.18212,-2.0725 0.15094,-4.21044 -0.0677,-4.63851 -0.10119,-4.6788 -2.25053,-2.70348 -0.79449,0.73017 -1.28488,1.09496 -1.08974,0.81065 2.13942,-3.11719 10.65416,-8.39091 16.488,-10.21207 3.92105,-1.22404 8.00012,-1.98797 6.76089,-1.26619 -0.69782,0.40645 -0.46511,0.76659 2.48145,3.84029 3.73702,3.89827 3.76551,3.89198 9.92063,-2.19056 2.8964,-2.86225 7.10557,-4.52002 7.10557,-2.79851 0,1.44089 -12.35665,12.11423 -14.0248,12.11423 -0.30304,0 -1.72732,-1.24539 -3.97062,-3.47191 -3.49809,-3.47191 -3.49809,-3.47191 -7.11034,-1.74464 -4.01082,1.91785 -6.92203,3.0475 -9.33297,3.62151 -1.60181,0.38137 -1.60181,0.38137 -1.6636,5.38021 -0.0672,5.43378 -0.11924,5.65559 -1.39211,5.93047 -5.41303,1.16892 -14.83244,1.62962 -20.97132,1.02569 z m 9.81307,-17.87229 c -0.10595,-0.16829 -0.22443,-3.54963 -0.26328,-7.51409 -0.0837,-8.5374 -0.045,-8.23783 -1.063,-8.23783 -0.90421,0 -1.04985,-0.25754 -1.04985,-1.85653 0,-1.16546 0.0183,-1.18751 1.20135,-1.44674 0.62928,-0.13788 0.62928,-0.13788 0.62928,-9.20096 0,-10.32656 0.77687,-11.58249 12.1698,-19.67429 9.54176,-6.77701 12.54569,-8.72022 13.02362,-8.42485 0.32667,0.20189 1.91462,3.61601 3.05351,6.56508 1.39329,3.60782 1.95895,2.54655 1.98195,-3.71847 0.0191,-5.20965 -1.48901,-9.92383 -4.52555,-14.14607 -2.84794,-3.96001 -3.59397,-4.89445 -5.1281,-6.42323 -17.69054,-17.628701 -47.893624,-9.089116 -53.960828,15.25682 -1.395707,5.60058 -1.041077,12.75895 0.458735,9.25978 0.256236,-0.59782 0.602264,-1.2414 0.768954,-1.43018 0.166691,-0.18879 0.684947,-1.09716 1.151682,-2.01861 0.466735,-0.92145 0.99436,-1.73129 1.172501,-1.79964 0.945504,-0.36283 12.786549,5.73614 15.760751,8.11789 4.466075,3.57644 10.869365,9.48941 10.869365,10.03706 0,0.55044 -0.33149,0.33379 -1.83724,-1.20073 -5.76843,-5.87867 -20.06555,-14.49113 -21.527844,-12.9682 -0.213509,0.22237 -3.19777,5.96484 -6.631692,12.76106 -3.43392,6.79621 -6.526969,12.87162 -6.873441,13.5009 -0.346472,0.62928 -0.91849,1.73624 -1.271149,2.45991 -0.737406,1.51318 -0.581363,1.47062 -2.818988,0.76883 -1.977697,-0.62028 -1.954848,-0.4799 -0.483026,-2.96763 0.606186,-1.02461 2.596299,-4.38575 4.422474,-7.46922 1.826175,-3.08347 3.91246,-6.60859 4.636189,-7.8336 1.480829,-2.50651 1.500785,-2.92136 0.140544,-2.92136 -1.2506,0 -1.398947,-0.42041 -1.955358,-5.54142 -3.885463,-35.760403 45.314311,-53.1779 64.821301,-22.94777 0.56849,0.881 1.32521,1.94005 1.6816,2.35346 0.35639,0.41341 0.64798,0.8609 0.64798,0.99441 0,0.13351 0.18835,0.51608 0.41854,0.85014 0.2302,0.33407 0.71459,1.32821 1.07642,2.2092 0.36183,0.88099 0.78198,1.80775 0.93367,2.05946 1.781,2.95543 1.85025,15.00366 0.11525,20.04992 -0.4233,1.23116 -0.4233,1.23116 0.12851,2.33082 0.3035,0.60481 0.89291,1.94345 1.3098,2.97477 0.69782,1.72631 2.2391,5.17064 5.58942,12.49079 0.71377,1.55952 1.33257,2.92537 1.37513,3.03523 0.0945,0.2441 -1.36903,0.87973 -2.02561,0.87973 -0.37535,0 -0.66893,-0.42186 -1.39337,-2.00225 -0.5048,-1.10124 -1.3122,-2.82604 -1.79423,-3.83288 -1.62398,-3.39214 -5.08916,-11.1896 -6.35017,-14.28936 -0.6884,-1.6922 -1.51166,-3.58987 -1.82947,-4.21703 -0.3178,-0.62716 -0.72222,-1.54955 -0.89871,-2.04976 -0.73312,-2.07789 -2.2048,-5.16029 -2.52185,-5.28195 -0.45893,-0.1761 -1.04439,0.14981 -4.77962,2.66072 -8.68143,5.83586 -13.61216,9.701 -16.9959,13.32289 -1.54495,1.65369 -1.76903,7.21292 -1.19045,29.53377 0.16694,6.4403 0.10047,7.68864 -0.3696,6.94201 z m -68.428117,-5.05273 c -0.0977,-0.1587 3.076394,-5.33098 9.556085,-15.57192 3.136108,-4.95651 3.013244,-4.42928 1.718898,-7.37612 -0.920783,-2.09636 -1.717556,-4.33963 -2.476608,-6.97277 -0.296838,-1.02973 -0.296838,-1.02973 -5.445487,-1.15521 -2.831756,-0.069 -5.171515,-0.14624 -5.199463,-0.17162 -1.753062,-1.59204 -2.380153,-18.58425 -0.972861,-26.36146 0.713823,-3.94485 0.213735,-3.64082 6.108873,-3.71402 5.779493,-0.0718 4.992781,0.40101 6.349722,-3.81586 1.024701,-3.1844 2.235604,-5.91172 3.76865,-8.488142 1.482495,-2.491465 1.684723,-1.980983 -2.282202,-5.760958 -3.51661,-3.350882 -3.908484,-3.909769 -3.448802,-4.91866 2.126862,-4.667955 18.085987,-19.983445 20.823249,-19.983445 0.456255,0 1.380465,0.788524 4.060448,3.464321 3.469739,3.464322 3.469739,3.464322 6.981961,1.738832 3.281918,-1.612344 7.260704,-3.169277 9.919432,-3.881558 1.144144,-0.306519 1.144144,-0.306519 1.269618,-5.447841 0.06901,-2.827727 0.14624,-5.163442 0.171621,-5.190478 1.631431,-1.73779 18.245723,-2.364629 26.132633,-0.985957 1.44734,0.253004 2.70876,0.460689 2.80315,0.461523 0.94128,0.0083 1.08694,0.789386 1.08694,5.828602 0,5.536392 -0.15463,5.091817 1.94505,5.592323 2.60245,0.620357 8.54696,3.076578 10.8993,4.503501 1.61699,0.980864 1.45501,1.003937 2.94692,-0.419755 0.6924,-0.660743 2.30748,-2.205338 3.58905,-3.432432 2.87013,-2.748121 2.78944,-2.740372 5.71732,-0.549041 6.55202,4.903771 13.37675,11.873269 17.20773,17.572766 1.12441,1.672837 1.10343,1.715487 -2.75771,5.605735 -3.47215,3.498332 -3.47215,3.498332 -1.96344,6.652678 1.71883,3.593656 3.07781,6.950176 3.8249,9.447146 0.65553,2.1909 0.26718,2.05187 5.74309,2.05595 6.01507,0.004 5.28701,-0.6624 6.62417,6.06747 0.95696,4.81632 0.59648,16.56653 -0.65926,21.48935 -0.66285,2.59852 -0.32724,2.45492 -6.06937,2.59702 -5.48761,0.13581 -5.20488,0.0412 -5.63326,1.8857 -0.16076,0.69221 -0.90462,2.79271 -1.65301,4.66778 -1.53524,3.84646 -1.5441,3.45863 0.13809,6.04541 0.54693,0.84103 1.79567,2.81632 2.77498,4.38951 0.9793,1.5732 2.37118,3.78712 3.09306,4.91982 6.27979,9.85361 6.04612,9.26757 3.69534,9.26757 -7.48526,0 -7.39827,0.0502 -7.31784,-4.21983 0.0791,-4.19771 0.28403,-3.76182 -7.70028,-16.37476 -5.1207,-8.08926 -11.02804,-18.08815 -11.12255,-18.82629 -0.2965,-2.31578 2.86685,-1.02998 4.61317,1.8751 1.30148,2.16505 1.77192,2.91983 2.6132,4.19263 0.37757,0.57124 0.95941,1.48743 1.29299,2.03598 1.86761,3.07112 3.95058,6.28095 4.16549,6.41895 0.55405,0.35577 1.07521,-0.9023 2.78923,-6.7332 0.81835,-2.78393 0.60906,-2.6929 6.1914,-2.6929 3.41829,0 4.66972,-0.074 4.83482,-0.28604 1.46919,-1.88651 1.36174,-22.04316 -0.12383,-23.22613 -0.25978,-0.20686 -1.59971,-0.28603 -4.84112,-0.28603 -5.35417,0 -5.27136,0.0327 -5.96296,-2.35332 -1.49358,-5.1528 -2.94536,-8.74764 -5.23202,-12.955344 -1.71232,-3.15084 -1.78012,-2.934618 2.16821,-6.914695 3.161,-3.186423 3.32211,-3.392275 3.05205,-3.899602 -1.95978,-3.681463 -14.58284,-16.210374 -16.33219,-16.210374 -0.16043,0 -1.77644,1.493108 -3.59112,3.318018 -3.79679,3.818179 -3.83366,3.833395 -6.04423,2.494741 -3.73538,-2.262023 -7.95837,-4.056436 -12.68654,-5.390701 -3.74149,-1.055829 -3.43243,-0.504775 -3.43243,-6.120035 0,-5.398959 0.10903,-5.09184 -1.94505,-5.478892 -4.94732,-0.932229 -13.75456,-0.934772 -19.679276,-0.0057 -2.299723,0.360634 -2.173874,0.06203 -2.173874,5.157968 0,5.404591 -0.05972,5.587726 -1.999287,6.130785 -4.466926,1.250697 -7.52304,2.425428 -11.437962,4.396607 -5.434451,2.736268 -4.738915,2.830622 -8.733708,-1.184793 -1.815537,-1.82491 -3.416338,-3.318018 -3.557336,-3.318018 -1.13684,0 -11.336679,9.310873 -13.602389,12.416872 -0.529057,0.725269 -1.421086,1.835665 -1.982286,2.467549 -1.422584,1.601753 -1.426756,1.592099 2.297654,5.31651 4.121514,4.121514 4.039072,3.238587 0.848688,9.089164 -0.514729,0.94391 -1.253994,2.54 -1.642811,3.54684 -0.388816,1.00685 -0.954316,2.3455 -1.256665,2.97478 -0.302349,0.62928 -0.806942,2.163 -1.121318,3.40827 -0.801926,3.1765 -0.402426,2.97813 -6.269884,3.11335 -5.64888,0.13018 -5.182431,-0.40384 -5.785326,6.62349 -0.485625,5.66045 0.119717,15.8699 1.007205,16.98707 0.018,0.0227 2.235804,0.0999 4.928457,0.17162 5.748978,0.15316 5.400015,-0.0276 6.215273,3.21962 0.268581,1.06978 0.690448,2.29569 0.937482,2.72425 0.247035,0.42856 0.656129,1.40681 0.9091,2.17388 1.005754,3.04968 0.940568,3.08961 4.633723,-2.83867 1.450485,-2.32833 3.233789,-5.16009 3.962895,-6.29279 0.729106,-1.13271 1.607417,-2.54128 1.951805,-3.13017 0.859419,-1.46959 1.391403,-1.78965 2.974635,-1.78965 1.794322,0 1.878874,-0.3382 -1.272931,5.09144 -1.864976,3.21281 -3.504177,6.04484 -5.46346,9.43919 -0.944404,1.63612 -2.159817,3.73435 -2.700919,4.66271 -0.983821,1.68793 -0.983821,1.68793 -0.574928,2.4472 0.405988,0.75388 0.404324,0.76708 -0.234295,1.85891 -1.378598,2.35697 -3.646759,5.72916 -4.662439,6.93191 -1.736089,2.05583 -1.872115,2.5296 -1.832385,6.38207 0.03451,3.34603 0.03451,3.34603 -1.191129,3.4002 -3.420734,0.15119 -9.177483,0.15397 -9.269516,0.004 z m 45.546533,-50.97972 c -2.27651,-0.40729 -2.377431,-0.49257 -2.377431,-2.009 0,-1.69563 0.03679,-1.72318 1.392211,-1.04239 3.328507,1.67182 7.074456,1.03076 7.074456,-1.21068 0,-1.67069 -0.808382,-2.13848 -3.695407,-2.13848 -3.058828,0 -2.781934,-2.1852 0.295537,-2.33233 1.950052,-0.0932 2.12949,-0.14358 2.644092,-0.74184 2.107296,-2.44988 -3.006919,-3.91042 -6.270645,-1.7908 -0.898784,0.58371 -1.494593,-1.74776 -0.630009,-2.4653 1.070647,-0.88856 6.821062,-1.10806 8.74422,-0.33377 2.662183,1.07182 2.910714,4.68453 0.394588,5.73583 -1.058064,0.44209 -1.004154,0.84004 0.169173,1.24877 1.96736,0.68535 2.669913,3.36476 1.363364,5.19964 -1.216117,1.70788 -5.32491,2.5565 -9.104149,1.88035 z m 13.972734,-0.18343 c -0.96637,-0.2792 -0.7898,-2.54975 -0.7898,-7.03708 0,-7.18904 0,-7.18904 6.4072,-7.18904 6.40721,0 6.40721,0 6.40721,7.21813 0,7.21813 0,7.21813 -1.6415,7.1509 -1.64151,-0.0672 -1.64151,-0.0672 -1.62357,-5.73434 0.0211,-6.66926 0.30931,-6.11758 -3.19574,-6.11758 -3.15522,0 -2.84341,-0.49668 -2.92117,6.20462 -0.0518,4.46445 0.27806,6.34824 -2.64263,5.50439 z m 19.57596,-5.48486 c 0,-6.65165 0.17451,-6.22415 -2.5408,-6.22415 -1.83103,0 -3.04596,-1.43193 -2.05484,-2.42188 0.98392,-0.98277 12.60465,0.0821 12.60465,1.15504 0,1.25027 0,1.25027 -2.23108,1.31576 -2.23108,0.0655 -2.23108,0.0655 -2.29215,5.95784 -0.0611,5.89234 -0.0611,5.89234 -1.77343,5.89234 -1.71235,0 -1.71235,0 -1.71235,-5.67495 z"
         id="path4392"
         sodipodi:nodetypes="cssssssssscssssccscscsssssssssccccscssssssscscsssscsssssssssssssssssscsssscssssssssssscsssscscssssssssscsssssssssssscsssssssssssssssssscssssscsssssssssssssssssssssccsssssssssssssssccssssscsssssssssssscssssssssscss" /></g></g></svg>
